# xmcd
#
# Track frame offsets:
# 150
# 15131
# 30625
# 42933
# 59344
# 71140
# 87173
# 101776
# 114273
# 132628
# 145962
# 161564
# 176248
# 190284
# 202997
# 222513
# 243135
# 257441
# 271045
#
# Disc length: 3866 seconds
#
#
# Revision: 0
# Processed by: cddbd v1.5.1PL2 Copyright (c) Steve Scherf et al.
# Submitted via: FreeRIP 2.945 
#
DISCID=0d0f1813
DTITLE=VARIOS ARTISTAS - SUCESSOS DE OURO 2
DYEAR=1900
DGENRE=POP
TTITLE0=WITHOUT YOU - NILSSON
TTITLE1=DON'T FORGET TO REMEMBER - BEE GEES
TTITLE2=EVERYBODY'S TALKING - NILSSON
TTITLE3=TORNERO
TTITLE4=HAVE YOU EVER SEEN THE RAIN - GREEDENCE
TTITLE5=I DON'T WANT - NAZARETH
TTITLE6=RAIN AND TEARS - APHODIT'S CHILD
TTITLE7=BLOWING' IN THE WIND - BOB DYLAN
TTITLE8=SE CASO MAI - SANDRO GIACOBRE
TTITLE9=OVER YOU - LANE BRODY
TTITLE10=I ADORE HER - THE WALKERS
TTITLE11=STATION - TERRY WINTER
TTITLE12=AB-LA-DI-OB-LA-DA - THES BEATLES
TTITLE13=OH! MON AMOUR - CHYSTOPHE
TTITLE14=TUTENS VAS - APRODIT'S CHILD
TTITLE15=MARIE JULIE - APRODIT'S CHILD
TTITLE16=FILLE DU VENT - PIERRE GRASCOLAS
TTITLE17=TANTO CARA - GUIDO RENZI
TTITLE18=YOU - SILVERWING
EXTD=
EXTT0=
EXTT1=
EXTT2=
EXTT3=
EXTT4=
EXTT5=
EXTT6=
EXTT7=
EXTT8=
EXTT9=
EXTT10=
EXTT11=
EXTT12=
EXTT13=
EXTT14=
EXTT15=
EXTT16=
EXTT17=
EXTT18=
PLAYORDER=
